<svg xmlns="http://www.w3.org/2000/svg" viewBox="0 0 32 32" fill="none">
  <defs>
    <linearGradient id="bg" x1="0" y1="0" x2="32" y2="32" gradientUnits="userSpaceOnUse">
      <stop offset="0%" stop-color="#4f46e5"/>
      <stop offset="100%" stop-color="#7c3aed"/>
    </linearGradient>
  </defs>
  <rect width="32" height="32" rx="7" fill="url(#bg)"/>
  <!-- Sparkles icon (lucide-style), scaled to fit 32x32 -->
  <g transform="translate(4, 4) scale(1)">
    <!-- Main sparkle -->
    <path d="M12 3l-1.59 4.84a1.67 1.67 0 0 1-1.06 1.06L5 10.5l4.35 1.42a1.67 1.67 0 0 1 1.06 1.06L12 18l1.59-5.02a1.67 1.67 0 0 1 1.06-1.06L19 10.5l-4.35-1.6a1.67 1.67 0 0 1-1.06-1.06Z" fill="white"/>
    <!-- Small sparkle top-left -->
    <path d="M5 3v2M4 4h2" stroke="white" stroke-width="1.4" stroke-linecap="round"/>
    <!-- Small sparkle bottom-right -->
    <path d="M19 18v2M18 19h2" stroke="white" stroke-width="1.4" stroke-linecap="round"/>
  </g>
</svg>
